<svg width="23" height="18" viewBox="0 0 23 18" fill="none" xmlns="http://www.w3.org/2000/svg">
<path d="M12.8 14.62C14.12 14.18 15.2 13.7 16.04 13.18C16.88 12.62 17.5 12.02 17.9 11.38C18.3 10.7 18.5 9.98 18.5 9.22C18.5 8.74 18.34 8.36 18.02 8.08C17.74 7.76 17.38 7.5 16.94 7.3C16.54 7.06 16.12 6.8 15.68 6.52C15.24 6.24 14.86 5.88 14.54 5.44C14.26 5 14.12 4.42 14.12 3.7C14.12 2.54 14.48 1.66 15.2 1.06C15.96 0.459997 16.9 0.159997 18.02 0.159997C19.26 0.159997 20.34 0.619997 21.26 1.54C22.18 2.42 22.64 3.7 22.64 5.38C22.64 7.94 21.88 10.28 20.36 12.4C18.88 14.52 16.36 16.1 12.8 17.14V14.62ZM0.8 14.62C2.12 14.18 3.2 13.7 4.04 13.18C4.88 12.62 5.5 12.02 5.9 11.38C6.3 10.7 6.5 9.98 6.5 9.22C6.5 8.74 6.34 8.36 6.02 8.08C5.74 7.76 5.38 7.5 4.94 7.3C4.54 7.06 4.12 6.8 3.68 6.52C3.24 6.24 2.86 5.88 2.54 5.44C2.26 5 2.12 4.42 2.12 3.7C2.12 2.54 2.48 1.66 3.2 1.06C3.96 0.459997 4.9 0.159997 6.02 0.159997C7.26 0.159997 8.34 0.619997 9.26 1.54C10.18 2.42 10.64 3.7 10.64 5.38C10.64 7.94 9.88 10.28 8.36 12.4C6.88 14.52 4.36 16.1 0.8 17.14V14.62Z" fill="black"/>
</svg>
