<svg width="40" height="40" viewBox="0 0 40 40" fill="none" xmlns="http://www.w3.org/2000/svg">
<mask id="path-1-inside-1_16_481" fill="white">
<path d="M20.1772 5C11.2412 5 4 10.7789 4 17.9077C4 22.548 7.06947 26.614 11.6753 28.8894C11.3401 30.1649 10.4499 33.5094 10.2722 34.2242C10.0534 35.1123 10.5949 35.1005 10.9495 34.8611C11.2278 34.6742 15.3835 31.8236 17.1764 30.5929C18.1707 30.7416 19.1745 30.8162 20.1797 30.8162C29.1157 30.8162 36.3568 25.0357 36.3568 17.9077C36.3568 10.7797 29.1132 5 20.1797 5"/>
</mask>
<path d="M11.6753 28.8894L13.6096 29.3978L14.0246 27.8192L12.5612 27.0963L11.6753 28.8894ZM10.2722 34.2242L8.33129 33.7416L8.33026 33.7458L10.2722 34.2242ZM10.9495 34.8611L9.83424 33.2009L9.83036 33.2035L10.9495 34.8611ZM17.1764 30.5929L17.4722 28.6149L16.6936 28.4985L16.0446 28.944L17.1764 30.5929ZM20.1797 30.8162L20.1797 28.8162L20.1797 28.8162L20.1797 30.8162ZM20.1772 3C10.5813 3 2 9.27672 2 17.9077H6C6 12.281 11.901 7 20.1772 7V3ZM2 17.9077C2 23.4998 5.69101 28.1638 10.7895 30.6825L12.5612 27.0963C8.44792 25.0643 6 21.5963 6 17.9077H2ZM9.74105 28.381C9.41213 29.6323 8.51321 33.0099 8.3313 33.7416L12.2131 34.7067C12.3866 34.0089 13.268 30.6975 13.6096 29.3978L9.74105 28.381ZM8.33026 33.7458C8.23844 34.1186 8.16657 34.6166 8.27966 35.1482C8.40712 35.7473 8.77984 36.3843 9.4831 36.745C10.1079 37.0655 10.7142 37.0222 11.0836 36.9428C11.4711 36.8595 11.8054 36.6964 12.0686 36.5187L9.83036 33.2035C9.91625 33.1455 10.0499 33.0736 10.243 33.0321C10.418 32.9945 10.8362 32.9436 11.3086 33.1859C11.8595 33.4684 12.1157 33.9568 12.1921 34.3159C12.2541 34.6074 12.1966 34.7738 12.2142 34.7025L8.33026 33.7458ZM12.0647 36.5213C12.354 36.3269 16.5241 33.4666 18.3083 32.2418L16.0446 28.944C14.243 30.1807 10.1015 33.0214 9.83424 33.2009L12.0647 36.5213ZM16.8806 32.5709C17.9728 32.7343 19.0755 32.8162 20.1797 32.8162L20.1797 28.8162C19.2735 28.8162 18.3686 28.749 17.4722 28.6149L16.8806 32.5709ZM20.1797 32.8162C29.7758 32.8162 38.3568 26.5376 38.3568 17.9077H34.3568C34.3568 23.5338 28.4556 28.8162 20.1797 28.8162V32.8162ZM38.3568 17.9077C38.3568 9.27746 29.7728 3 20.1797 3V7C28.4535 7 34.3568 12.2819 34.3568 17.9077H38.3568Z" fill="#88B077" mask="url(#path-1-inside-1_16_481)"/>
<path d="M14.802 14.5H10.698C10.5128 14.5 10.3353 14.5736 10.2044 14.7046C10.0735 14.8356 10 15.0133 10 15.1986C10 15.3839 10.0735 15.5616 10.2044 15.6926C10.3353 15.8236 10.5128 15.8972 10.698 15.8972H12.0321V20.8181C12.0328 20.9987 12.1048 21.1717 12.2324 21.2994C12.36 21.4271 12.5328 21.4992 12.7133 21.5H12.8623C13.0426 21.4992 13.2153 21.4271 13.3427 21.2993C13.47 21.1716 13.5417 20.9986 13.5421 20.8181V15.8972H14.802C14.9872 15.8972 15.1647 15.8236 15.2956 15.6926C15.4265 15.5616 15.5 15.3839 15.5 15.1986C15.5 15.0133 15.4265 14.8356 15.2956 14.7046C15.1647 14.5736 14.9872 14.5 14.802 14.5V14.5Z" fill="#88B077"/>
<path d="M24.3929 20.2452H22.5014V15.2734C22.5045 15.173 22.4874 15.073 22.4511 14.9793C22.4147 14.8856 22.36 14.8001 22.29 14.728C22.22 14.6559 22.1362 14.5985 22.0436 14.5593C21.951 14.5202 21.8514 14.5 21.7509 14.5C21.6503 14.5 21.5508 14.5202 21.4582 14.5593C21.3655 14.5985 21.2818 14.6559 21.2118 14.728C21.1418 14.8001 21.087 14.8856 21.0507 14.9793C21.0144 15.073 20.9972 15.173 21.0004 15.2734V20.6325C21.0011 20.6728 21.0052 20.7131 21.0126 20.7527C21.0045 20.792 21.0004 20.8321 21.0004 20.8722C21.0003 20.9547 21.0165 21.0364 21.048 21.1126C21.0795 21.1888 21.1258 21.258 21.1842 21.3163C21.2426 21.3747 21.3119 21.4209 21.3881 21.4524C21.4644 21.4839 21.5462 21.5001 21.6287 21.5H24.3929C24.5558 21.4945 24.7101 21.426 24.8234 21.3089C24.9367 21.1919 25 21.0354 25 20.8726C25 20.7098 24.9367 20.5533 24.8234 20.4363C24.7101 20.3192 24.5558 20.2507 24.3929 20.2452V20.2452Z" fill="#88B077"/>
<path d="M30.3691 20.4331L28.3162 17.6858L30.1712 15.7952C30.2311 15.7341 30.2786 15.6617 30.311 15.5819C30.3435 15.5022 30.3601 15.4167 30.3601 15.3304C30.3601 15.2441 30.3435 15.1586 30.311 15.0788C30.2786 14.9991 30.2311 14.9266 30.1712 14.8656C30.1113 14.8046 30.0401 14.7561 29.9619 14.7231C29.8836 14.6901 29.7997 14.6731 29.715 14.6731C29.6303 14.6731 29.5464 14.6901 29.4681 14.7231C29.3898 14.7561 29.3187 14.8046 29.2588 14.8656L26.9623 17.2053V15.2682C26.9653 15.1684 26.9487 15.0691 26.9133 14.976C26.8779 14.883 26.8246 14.7981 26.7564 14.7265C26.6882 14.6548 26.6066 14.5978 26.5164 14.5589C26.4262 14.52 26.3293 14.5 26.2313 14.5C26.1334 14.5 26.0364 14.52 25.9462 14.5589C25.856 14.5978 25.7744 14.6548 25.7063 14.7265C25.6381 14.7981 25.5847 14.883 25.5493 14.976C25.514 15.0691 25.4973 15.1684 25.5004 15.2682V20.7549C25.5062 20.9484 25.5858 21.132 25.7223 21.2668C25.8587 21.4016 26.0413 21.4769 26.2313 21.4769C26.4214 21.4769 26.6039 21.4016 26.7404 21.2668C26.8768 21.132 26.9564 20.9484 26.9623 20.7549V19.0616L27.3799 18.6369L29.3219 21.2333C29.4261 21.3748 29.5811 21.4683 29.753 21.4933C29.9248 21.5183 30.0993 21.4727 30.2382 21.3666C30.3771 21.2605 30.4689 21.1026 30.4934 20.9275C30.518 20.7524 30.4733 20.5746 30.3691 20.4331Z" fill="#88B077"/>
<path d="M20.4625 20.5695L18.4655 15.0835L18.4591 15.0778C18.3314 14.7437 17.9623 14.5 17.5238 14.5C17.0362 14.5 16.6331 14.7992 16.5529 15.1904C16.5387 15.2198 16.5261 15.25 16.5153 15.2809L14.5552 20.5695C14.5188 20.6533 14.5 20.7438 14.5 20.8352C14.5 20.9266 14.5188 21.0171 14.5552 21.1009C14.5916 21.1847 14.6448 21.2601 14.7115 21.3223C14.7782 21.3845 14.857 21.4323 14.9429 21.4625C15.0289 21.4928 15.1201 21.5049 15.2109 21.4982C15.3018 21.4915 15.3902 21.466 15.4708 21.4234C15.5513 21.3807 15.6223 21.3219 15.6792 21.2505C15.7361 21.1791 15.7777 21.0967 15.8014 21.0084L16.1406 20.0352H18.8736L19.2128 21.0084C19.271 21.1748 19.3927 21.3111 19.5511 21.3874C19.7095 21.4637 19.8916 21.4737 20.0573 21.4152C20.223 21.3568 20.3588 21.2346 20.4348 21.0756C20.5108 20.9166 20.5208 20.7338 20.4625 20.5674V20.5695ZM16.5742 18.7948L17.4925 16.1636C17.5032 16.1636 17.5117 16.1636 17.5223 16.1636L18.4392 18.7912L16.5742 18.7948Z" fill="#88B077"/>
</svg>
