<svg width="40" height="40" viewBox="0 0 40 40" fill="none" xmlns="http://www.w3.org/2000/svg">
<path d="M19.999 2.49955C16.3536 2.50388 12.8588 3.95392 10.2811 6.53161C7.70339 9.1093 6.25335 12.6042 6.24902 16.2495C6.24902 28.0147 18.749 36.9014 19.2812 37.2737C19.4917 37.4207 19.7423 37.4995 19.999 37.4995C20.2558 37.4995 20.5063 37.4207 20.7168 37.2737C21.249 36.9014 33.749 28.0147 33.749 16.2495C33.7447 12.6042 32.2947 9.1093 29.717 6.53161C27.1393 3.95392 23.6444 2.50387 19.999 2.49955V2.49955ZM19.9999 11.25C20.9888 11.25 21.9555 11.5432 22.7778 12.0927C23.6 12.6421 24.2409 13.423 24.6193 14.3366C24.9978 15.2502 25.0968 16.2555 24.9039 17.2255C24.7109 18.1954 24.2347 19.0863 23.5355 19.7855C22.8362 20.4848 21.9453 20.961 20.9754 21.1539C20.0055 21.3469 19.0002 21.2478 18.0865 20.8694C17.1729 20.491 16.392 19.8501 15.8426 19.0279C15.2932 18.2056 14.9999 17.2389 14.9999 16.25C14.9999 15.5934 15.1292 14.9432 15.3805 14.3366C15.6318 13.7299 16.0001 13.1787 16.4644 12.7144C16.9287 12.2501 17.4799 11.8818 18.0865 11.6306C18.6931 11.3793 19.3433 11.25 19.9999 11.25V11.25Z" fill="white"/>
</svg>
