<svg width="40" height="40" viewBox="0 0 40 40" fill="none" xmlns="http://www.w3.org/2000/svg">
<path d="M31.25 35H23.5218C24.8221 33.841 26.0483 32.6016 27.1933 31.289C31.4827 26.356 33.75 21.1557 33.75 16.25C33.75 12.6033 32.3013 9.10591 29.7227 6.52728C27.1441 3.94866 23.6467 2.5 20 2.5C16.3533 2.5 12.8559 3.94866 10.2773 6.52728C7.69866 9.10591 6.25 12.6033 6.25 16.25C6.25 21.1557 8.5173 26.356 12.8067 31.289C13.9517 32.6016 15.1779 33.841 16.4782 35H8.75C8.41848 35 8.10054 35.1317 7.86612 35.3661C7.6317 35.6005 7.5 35.9185 7.5 36.25C7.5 36.5815 7.6317 36.8995 7.86612 37.1339C8.10054 37.3683 8.41848 37.5 8.75 37.5H31.25C31.5815 37.5 31.8995 37.3683 32.1339 37.1339C32.3683 36.8995 32.5 36.5815 32.5 36.25C32.5 35.9185 32.3683 35.6005 32.1339 35.3661C31.8995 35.1317 31.5815 35 31.25 35ZM20 11.25C20.9889 11.25 21.9556 11.5432 22.7779 12.0927C23.6001 12.6421 24.241 13.423 24.6194 14.3366C24.9979 15.2502 25.0969 16.2555 24.904 17.2255C24.711 18.1954 24.2348 19.0863 23.5356 19.7855C22.8363 20.4848 21.9454 20.961 20.9755 21.1539C20.0056 21.3469 19.0003 21.2478 18.0866 20.8694C17.173 20.491 16.3921 19.8501 15.8427 19.0279C15.2933 18.2056 15 17.2389 15 16.25C15 15.5934 15.1294 14.9432 15.3806 14.3366C15.6319 13.7299 16.0002 13.1787 16.4645 12.7145C16.9288 12.2502 17.48 11.8819 18.0866 11.6306C18.6932 11.3793 19.3434 11.25 20 11.25V11.25Z" fill="white"/>
</svg>
