<svg width="23" height="18" viewBox="0 0 23 18" fill="none" xmlns="http://www.w3.org/2000/svg">
<path d="M16.98 17.08C15.74 17.08 14.66 16.64 13.74 15.76C12.82 14.84 12.36 13.54 12.36 11.86C12.36 9.3 13.1 6.96 14.58 4.84C16.1 2.72 18.64 1.14 22.2 0.099998V2.62C20.92 3.02 19.84 3.5 18.96 4.06C18.12 4.58 17.5 5.18 17.1 5.86C16.7 6.5 16.5 7.22 16.5 8.02C16.5 8.5 16.64 8.9 16.92 9.22C17.24 9.5 17.62 9.76 18.06 10C18.5 10.2 18.92 10.44 19.32 10.72C19.76 11 20.12 11.36 20.4 11.8C20.72 12.24 20.88 12.82 20.88 13.54C20.88 14.66 20.5 15.54 19.74 16.18C19.02 16.78 18.1 17.08 16.98 17.08ZM4.98 17.08C3.74 17.08 2.66 16.64 1.74 15.76C0.82 14.84 0.36 13.54 0.36 11.86C0.36 9.3 1.1 6.96 2.58 4.84C4.1 2.72 6.64 1.14 10.2 0.099998V2.62C8.92 3.02 7.84 3.5 6.96 4.06C6.12 4.58 5.5 5.18 5.1 5.86C4.7 6.5 4.5 7.22 4.5 8.02C4.5 8.5 4.64 8.9 4.92 9.22C5.24 9.5 5.6 9.76 6 10C6.44 10.2 6.88 10.44 7.32 10.72C7.76 11 8.12 11.36 8.4 11.8C8.72 12.24 8.88 12.82 8.88 13.54C8.88 14.66 8.5 15.54 7.74 16.18C7.02 16.78 6.1 17.08 4.98 17.08Z" fill="black"/>
</svg>
