<svg width="16" height="17" viewBox="0 0 16 17" fill="none" xmlns="http://www.w3.org/2000/svg">
<path d="M7.99951 1.49988C6.54135 1.50161 5.14341 2.08163 4.11234 3.1127C3.08126 4.14378 2.50124 5.54172 2.49951 6.99988C2.49951 11.7059 7.49951 15.2606 7.7124 15.4095C7.7966 15.4683 7.89682 15.4999 7.99951 15.4999C8.10221 15.4999 8.20243 15.4683 8.28662 15.4095C8.49951 15.2606 13.4995 11.7059 13.4995 6.99988C13.4978 5.54172 12.9178 4.14378 11.8867 3.1127C10.8556 2.08163 9.45767 1.50161 7.99951 1.49988V1.49988ZM7.99988 5.00006C8.39544 5.00006 8.78212 5.11736 9.11102 5.33712C9.43992 5.55688 9.69626 5.86924 9.84764 6.23469C9.99901 6.60014 10.0386 7.00228 9.96145 7.39024C9.88428 7.7782 9.6938 8.13457 9.41409 8.41427C9.13439 8.69398 8.77802 8.88446 8.39006 8.96163C8.0021 9.0388 7.59996 8.99919 7.23451 8.84782C6.86906 8.69644 6.5567 8.4401 6.33694 8.1112C6.11718 7.7823 5.99988 7.39562 5.99988 7.00006C5.99987 6.73741 6.0516 6.47734 6.1521 6.23468C6.25261 5.99203 6.39993 5.77155 6.58565 5.58583C6.77137 5.40011 6.99185 5.25279 7.2345 5.15229C7.47716 5.05178 7.73723 5.00005 7.99988 5.00006V5.00006Z" fill="white"/>
</svg>
