<svg width="40" height="40" viewBox="0 0 40 40" fill="none" xmlns="http://www.w3.org/2000/svg">
<path d="M14.8411 23.6878C14.4548 23.6878 14.0558 23.6498 13.6441 23.5738C13.2388 23.4914 12.8904 23.3774 12.5991 23.2318C12.4281 23.1494 12.3078 23.0386 12.2381 22.8993C12.1684 22.7599 12.1431 22.6174 12.1621 22.4718C12.1811 22.3198 12.2349 22.1868 12.3236 22.0728C12.4123 21.9524 12.5294 21.8733 12.6751 21.8353C12.8208 21.7909 12.9854 21.8099 13.1691 21.8923C13.4098 22.0126 13.6821 22.1044 13.9861 22.1678C14.2901 22.2248 14.5751 22.2533 14.8411 22.2533C15.2591 22.2533 15.5504 22.1994 15.7151 22.0918C15.8861 21.9778 15.9716 21.8384 15.9716 21.6738C15.9716 21.5281 15.9114 21.4109 15.7911 21.3223C15.6771 21.2336 15.4713 21.1576 15.1736 21.0943L14.0621 20.8568C12.8588 20.5971 12.2571 19.9669 12.2571 18.9663C12.2571 18.5293 12.3743 18.1461 12.6086 17.8168C12.8493 17.4874 13.1818 17.2341 13.6061 17.0568C14.0304 16.8731 14.5244 16.7813 15.0881 16.7813C15.4174 16.7813 15.7499 16.8193 16.0856 16.8953C16.4276 16.9649 16.7221 17.0726 16.9691 17.2183C17.1591 17.3196 17.2794 17.4589 17.3301 17.6363C17.3808 17.8073 17.3744 17.9751 17.3111 18.1398C17.2478 18.3044 17.1338 18.4248 16.9691 18.5008C16.8108 18.5768 16.6081 18.5641 16.3611 18.4628C16.1711 18.3804 15.9621 18.3203 15.7341 18.2823C15.5061 18.2379 15.2844 18.2158 15.0691 18.2158C14.7144 18.2158 14.4421 18.2791 14.2521 18.4058C14.0621 18.5261 13.9671 18.6844 13.9671 18.8808C13.9671 19.0201 14.0241 19.1341 14.1381 19.2228C14.2521 19.3114 14.4548 19.3874 14.7461 19.4508L15.8481 19.6883C17.0704 19.9479 17.6816 20.5623 17.6816 21.5313C17.6816 21.9683 17.5644 22.3483 17.3301 22.6713C17.0958 22.9943 16.7664 23.2444 16.3421 23.4218C15.9178 23.5991 15.4174 23.6878 14.8411 23.6878ZM18.9296 23.6688C18.3849 23.6688 18.1126 23.3933 18.1126 22.8423V17.6648C18.1126 17.3861 18.1823 17.1739 18.3216 17.0283C18.4609 16.8763 18.6446 16.8003 18.8726 16.8003C19.0753 16.8003 19.2304 16.8383 19.3381 16.9143C19.4521 16.9903 19.5819 17.1169 19.7276 17.2943L22.4731 20.7238V17.6173C22.4731 17.0726 22.7423 16.8003 23.2806 16.8003C23.5466 16.8003 23.7461 16.8731 23.8791 17.0188C24.0184 17.1581 24.0881 17.3576 24.0881 17.6173V22.8803C24.0881 23.1209 24.0248 23.3141 23.8981 23.4598C23.7714 23.5991 23.6004 23.6688 23.3851 23.6688C23.1698 23.6688 22.9988 23.6308 22.8721 23.5548C22.7518 23.4788 22.6219 23.3521 22.4826 23.1748L19.7371 19.7453V22.8423C19.7371 23.3933 19.4679 23.6688 18.9296 23.6688ZM27.3733 23.6878C26.987 23.6878 26.588 23.6498 26.1763 23.5738C25.771 23.4914 25.4226 23.3774 25.1313 23.2318C24.9603 23.1494 24.84 23.0386 24.7703 22.8993C24.7006 22.7599 24.6753 22.6174 24.6943 22.4718C24.7133 22.3198 24.7671 22.1868 24.8558 22.0728C24.9445 21.9524 25.0616 21.8733 25.2073 21.8353C25.353 21.7909 25.5176 21.8099 25.7013 21.8923C25.942 22.0126 26.2143 22.1044 26.5183 22.1678C26.8223 22.2248 27.1073 22.2533 27.3733 22.2533C27.7913 22.2533 28.0826 22.1994 28.2473 22.0918C28.4183 21.9778 28.5038 21.8384 28.5038 21.6738C28.5038 21.5281 28.4436 21.4109 28.3233 21.3223C28.2093 21.2336 28.0035 21.1576 27.7058 21.0943L26.5943 20.8568C25.391 20.5971 24.7893 19.9669 24.7893 18.9663C24.7893 18.5293 24.9065 18.1461 25.1408 17.8168C25.3815 17.4874 25.714 17.2341 26.1383 17.0568C26.5626 16.8731 27.0566 16.7813 27.6203 16.7813C27.9496 16.7813 28.2821 16.8193 28.6178 16.8953C28.9598 16.9649 29.2543 17.0726 29.5013 17.2183C29.6913 17.3196 29.8116 17.4589 29.8623 17.6363C29.913 17.8073 29.9066 17.9751 29.8433 18.1398C29.78 18.3044 29.666 18.4248 29.5013 18.5008C29.343 18.5768 29.1403 18.5641 28.8933 18.4628C28.7033 18.3804 28.4943 18.3203 28.2663 18.2823C28.0383 18.2379 27.8166 18.2158 27.6013 18.2158C27.2466 18.2158 26.9743 18.2791 26.7843 18.4058C26.5943 18.5261 26.4993 18.6844 26.4993 18.8808C26.4993 19.0201 26.5563 19.1341 26.6703 19.2228C26.7843 19.3114 26.987 19.3874 27.2783 19.4508L28.3803 19.6883C29.6026 19.9479 30.2138 20.5623 30.2138 21.5313C30.2138 21.9683 30.0966 22.3483 29.8623 22.6713C29.628 22.9943 29.2986 23.2444 28.8743 23.4218C28.45 23.5991 27.9496 23.6878 27.3733 23.6878Z" fill="#88B077"/>
<path d="M31.066 30.231L31.0659 30.2311C26.7903 34.5087 20.4539 35.436 15.2658 33.0366C15.2505 33.0296 15.2351 33.0229 15.2195 33.0166C14.9029 32.8892 14.5377 32.8904 14.3169 32.8966C14.0462 32.9042 13.7321 32.9342 13.4091 32.9718C13.1036 33.0073 12.7669 33.0525 12.4232 33.0986L12.3532 33.108C11.9815 33.1579 11.5989 33.2088 11.2155 33.2532C10.4392 33.3432 9.70723 33.4007 9.11782 33.3752C8.82398 33.3624 8.6 33.3302 8.44114 33.2866C8.34403 33.2599 8.2947 33.2354 8.27537 33.2246C8.26448 33.2052 8.23995 33.1559 8.21326 33.0588C8.16961 32.9 8.13731 32.676 8.12456 32.3822C8.09898 31.7928 8.15648 31.0608 8.24657 30.2844C8.29106 29.901 8.34201 29.5183 8.3919 29.1466L8.40144 29.0756C8.44755 28.7322 8.49274 28.3958 8.52829 28.0906C8.56592 27.7675 8.59599 27.4534 8.60364 27.1826C8.60988 26.9618 8.61119 26.5966 8.48371 26.2799C8.4774 26.2642 8.47068 26.2487 8.46358 26.2333C6.06326 21.0462 6.99173 14.7074 11.2689 10.4311L11.2691 10.4309C16.7305 4.96738 25.6045 4.96738 31.0659 10.4309L31.0661 10.4311C36.5389 15.9032 36.528 24.7682 31.066 30.231Z" stroke="#88B077" stroke-width="2" stroke-linecap="round" stroke-linejoin="round"/>
</svg>
