<svg width="40" height="40" viewBox="0 0 40 40" fill="none" xmlns="http://www.w3.org/2000/svg">
<g clip-path="url(#clip0_16_461)">
<path d="M17.8765 29.402L17.8369 29.3934L17.7968 29.3881C10.5639 28.4328 5.50003 23.4387 5.50003 17.7752C5.50003 11.469 11.9083 6 20.2421 6C28.5759 6 34.9842 11.469 34.9842 17.7752C34.9842 20.2958 34.0219 22.5989 31.8706 24.9656L31.8631 24.9738L31.8559 24.9821C30.2882 26.7855 27.6996 28.8361 25.246 30.5462C22.8397 32.2235 20.693 33.484 19.9087 33.8308C19.9333 33.6828 19.9636 33.5002 19.9922 33.3275L20.0599 32.9194L20.0814 32.7903L20.0873 32.7546L20.0888 32.7452L20.0892 32.7428L20.0893 32.7422L20.0894 32.7421L20.0894 32.742L19.1028 32.5785L20.0894 32.742L20.092 32.7259L20.0942 32.7097C20.1231 32.491 20.1561 32.1865 20.1568 31.8684C20.1575 31.5691 20.1311 31.1631 19.9824 30.7878L19.9824 30.7878L19.9803 30.7827C19.7498 30.2103 19.2485 29.9023 18.9192 29.7437C18.5572 29.5693 18.1681 29.4648 17.8765 29.402Z" stroke="#88B077" stroke-width="2"/>
<path d="M30.2353 21.5C30.3055 21.5 30.3728 21.4708 30.4225 21.4187C30.4721 21.3667 30.5 21.2962 30.5 21.2226V20.1727C30.5 20.0991 30.4721 20.0285 30.4225 19.9765C30.3728 19.9245 30.3055 19.8953 30.2353 19.8953H27.5366V18.8037H30.2353C30.3055 18.8037 30.3728 18.7745 30.4225 18.7225C30.4721 18.6705 30.5 18.5999 30.5 18.5264V17.475C30.5 17.4015 30.4721 17.3309 30.4225 17.2789C30.3728 17.2269 30.3055 17.1976 30.2353 17.1976H27.5366V16.1061H30.2353C30.3055 16.1061 30.3728 16.0769 30.4225 16.0249C30.4721 15.9728 30.5 15.9023 30.5 15.8287V14.7774C30.5 14.7038 30.4721 14.6333 30.4225 14.5813C30.3728 14.5292 30.3055 14.5 30.2353 14.5H26.2647C26.1945 14.5 26.1272 14.5292 26.0775 14.5813C26.0279 14.6333 26 14.7038 26 14.7774V21.2115C26 21.2851 26.0279 21.3556 26.0775 21.4077C26.1272 21.4597 26.1945 21.4889 26.2647 21.4889H30.2353V21.5Z" fill="#88B077"/>
<path d="M15.2056 21.5C15.2837 21.5 15.3586 21.4708 15.4138 21.4189C15.469 21.367 15.5 21.2966 15.5 21.2232V20.1753C15.5 20.1019 15.469 20.0315 15.4138 19.9795C15.3586 19.9276 15.2837 19.8985 15.2056 19.8985H12.203V14.7768C12.203 14.7034 12.172 14.633 12.1168 14.5811C12.0615 14.5292 11.9867 14.5 11.9086 14.5H10.7944C10.7163 14.5 10.6414 14.5292 10.5862 14.5811C10.531 14.633 10.5 14.7034 10.5 14.7768V21.2121C10.5 21.2855 10.531 21.3559 10.5862 21.4078C10.6414 21.4598 10.7163 21.4889 10.7944 21.4889H15.21L15.2056 21.5Z" fill="#88B077"/>
<path d="M17.7373 14.5H16.7627C16.6176 14.5 16.5 14.6261 16.5 14.7817V21.2183C16.5 21.3739 16.6176 21.5 16.7627 21.5H17.7373C17.8824 21.5 18 21.3739 18 21.2183V14.7817C18 14.6261 17.8824 14.5 17.7373 14.5Z" fill="#88B077"/>
<path d="M24.7267 14.5H23.6974C23.6253 14.5 23.5562 14.5289 23.5052 14.5805C23.4542 14.632 23.4255 14.7019 23.4255 14.7748V18.5791L20.5255 14.6223C20.5189 14.6118 20.5111 14.6021 20.5024 14.5934V14.5934L20.486 14.5769L20.4711 14.5646H20.4629L20.4493 14.5536H20.4398L20.4249 14.5453H20.4167H20.4004H20.3909H20.3746H20.3637H20.3474H20.3365H20.3215H19.2719C19.1998 14.5453 19.1306 14.5743 19.0796 14.6258C19.0287 14.6774 19 14.7472 19 14.8201V21.2252C19 21.2981 19.0287 21.368 19.0796 21.4195C19.1306 21.471 19.1998 21.5 19.2719 21.5H20.3025C20.3746 21.5 20.4438 21.471 20.4948 21.4195C20.5458 21.368 20.5744 21.2981 20.5744 21.2252V17.3824L23.4772 21.3447C23.4967 21.3724 23.5211 21.3962 23.5492 21.4148L23.5669 21.4258H23.5751L23.5887 21.4327H23.6023H23.6104H23.6308C23.6548 21.4387 23.6795 21.442 23.7042 21.4423H24.728C24.8001 21.4423 24.8693 21.4133 24.9203 21.3618C24.9713 21.3103 24.9999 21.2404 24.9999 21.1675V14.7803C25.0007 14.7436 24.9941 14.7072 24.9807 14.6731C24.9673 14.6391 24.9472 14.608 24.9218 14.5819C24.8963 14.5558 24.8659 14.5351 24.8324 14.521C24.7989 14.507 24.7629 14.4998 24.7267 14.5V14.5Z" fill="#88B077"/>
</g>
<defs>
<clipPath id="clip0_16_461">
<rect width="31.4856" height="30" fill="white" transform="translate(4.5 5)"/>
</clipPath>
</defs>
</svg>
