<svg width="40" height="40" viewBox="0 0 40 40" fill="none" xmlns="http://www.w3.org/2000/svg">
<path d="M11.1257 31.1229L11.1256 31.1188C11.1152 30.8209 11.0443 30.5283 10.9172 30.2586C10.7906 29.99 10.6108 29.7499 10.3887 29.5528C7.68667 27.1351 6.01868 23.6329 6.01868 19.5505C6.01868 11.7888 12.0764 6.01868 20 6.01868C27.9236 6.01868 33.9812 11.7866 33.9812 19.5505C33.9812 27.3144 27.9236 33.0823 20 33.0823L19.9968 33.0824C18.6224 33.0866 17.2536 32.9062 15.9273 32.5459C15.4404 32.4121 14.9222 32.4501 14.46 32.6538L14.4599 32.6538L11.4861 33.9647L11.4859 33.9648C11.4561 33.9779 11.4236 33.9835 11.3912 33.9811C11.3588 33.9788 11.3274 33.9685 11.2999 33.9511C11.2724 33.9338 11.2496 33.91 11.2335 33.8818C11.2173 33.8535 11.2083 33.8218 11.2073 33.7893L11.1257 31.1229Z" stroke="#88B077" stroke-width="2" stroke-linejoin="round"/>
<path d="M28.9962 16.1996L24.5955 23.1835C24.4299 23.4461 24.2117 23.6716 23.9547 23.8457C23.6977 24.0198 23.4073 24.1388 23.102 24.1951C22.7967 24.2514 22.4831 24.2438 22.1808 24.1728C21.8786 24.1019 21.5944 23.9691 21.346 23.7828L17.846 21.1573C17.6897 21.0401 17.4995 20.9771 17.3041 20.9777C17.1087 20.9783 16.9189 21.0425 16.7633 21.1607L12.0359 24.7468C11.4052 25.2255 10.5816 24.4704 11.0037 23.8004L15.4045 16.8183C15.57 16.5557 15.7882 16.3303 16.0452 16.1562C16.3023 15.9821 16.5926 15.8631 16.8979 15.8068C17.2032 15.7505 17.5168 15.7581 17.8191 15.829C18.1213 15.9 18.4055 16.0328 18.6539 16.2191L22.1539 18.8442C22.3102 18.9614 22.5005 19.0244 22.6958 19.0238C22.8912 19.0232 23.0811 18.959 23.2367 18.8408L27.964 15.2536C28.5947 14.7745 29.4183 15.5296 28.9962 16.1996Z" fill="#88B077"/>
</svg>
